# xmcd
#
# Track frame offsets:
#	150
#	14847
#	33370
#	50397
#
# Disc length: 1029 seconds
#
# Revision: 5
# Processed by: cddbd v1.5.2PL0 Copyright (c) Steve Scherf et al.
# Submitted via: audiograbber 1.83.01
#
DISCID=2d040304
DTITLE=Bomfunk MCs - B-Boys and Flygirls [CDM)
DYEAR=2000
DGENRE=Freestyle
TTITLE0=B-Boys and Flygirls (Y2K Mix)
TTITLE1=B-Boys and Flygirls (1, 2, 3, 4)
TTITLE2=B-Boys and Flygirls (Motor Funk Remix)
TTITLE3=B-Boys and Flygirls (Westbams Technolectro Mix)
EXTD=
EXTT0=Maxi CD
EXTT1=
EXTT2=
EXTT3=
PLAYORDER=
